<?xml version="1.0" encoding="UTF-8"?>
<svg width="89px" height="90px" viewBox="0 0 89 90" version="1.1" xmlns="http://www.w3.org/2000/svg" xmlns:xlink="http://www.w3.org/1999/xlink">
    <!-- Generator: Sketch 52.5 (67469) - http://www.bohemiancoding.com/sketch -->
    <title>Group 2</title>
    <desc>Created with Sketch.</desc>
    <g id="Page-1" stroke="none" stroke-width="1" fill="none" fill-rule="evenodd">
        <g id="Main" transform="translate(-147.000000, -1533.000000)" fill-rule="nonzero">
            <g id="Group-13" transform="translate(47.000000, 1520.000000)">
                <g id="Group-2" transform="translate(100.000000, 13.000000)">
                    <path d="M2,40 L29,40 C30.1045695,40 31,40.8954305 31,42 C31,43.1045695 30.1045695,44 29,44 L2,44 C0.8954305,44 1.3527075e-16,43.1045695 0,42 C-1.3527075e-16,40.8954305 0.8954305,40 2,40 Z M9,48 L29,48 C30.1045695,48 31,48.8954305 31,50 C31,51.1045695 30.1045695,52 29,52 L9,52 C7.8954305,52 7,51.1045695 7,50 C7,48.8954305 7.8954305,48 9,48 Z M18,56 L29,56 C30.1045695,56 31,56.8954305 31,58 C31,59.1045695 30.1045695,60 29,60 L18,60 C16.8954305,60 16,59.1045695 16,58 C16,56.8954305 16.8954305,56 18,56 Z M54,4 L54,18 L50,18 L50,4 L42,4 C40.8954305,4 40,3.1045695 40,2 C40,0.8954305 40.8954305,2.02906125e-16 42,0 L62,0 C63.1045695,-2.02906125e-16 64,0.8954305 64,2 C64,3.1045695 63.1045695,4 62,4 L54,4 Z" id="Combined-Shape" fill="#F55F44"></path>
                    <path d="M51.4947965,57.1075402 L66.2706719,38.1952822 C66.9507127,37.3248695 68.2076037,37.1705427 69.0780163,37.8505836 C69.948429,38.5306245 70.1027558,39.7875154 69.4227149,40.6579281 L53.4155165,61.1462077 C52.7354756,62.0166203 51.4785847,62.1709471 50.6081721,61.4909062 L39.5760215,52.8716456 C38.7056089,52.1916047 38.5512821,50.9347137 39.231323,50.0643011 C39.9113638,49.1938885 41.1682548,49.0395617 42.0386674,49.7196025 L51.4947965,57.1075402 Z M19.3309391,70.3704478 C18.8123751,69.3951708 19.1826141,68.1841735 20.1578911,67.6656095 C21.1331681,67.1470455 22.3441655,67.5172846 22.8627294,68.4925616 C31.4190349,84.5846318 51.4004914,90.6935761 67.4925616,82.1372706 C83.5846318,73.5809651 89.6935761,53.5995086 81.1372706,37.5074384 C72.5809651,21.4153682 52.5995086,15.3064239 36.5074384,23.8627294 C32.1734178,26.1671691 28.4797918,29.34425 25.6018895,33.1836493 C24.9393904,34.0674868 23.685837,34.2469172 22.8019994,33.5844182 C21.9181618,32.9219192 21.7387315,31.6683657 22.4012305,30.7845281 C25.6297154,26.4774179 29.774061,22.9126495 34.6295522,20.3309391 C52.6721763,10.7375056 75.0756275,17.586928 84.6690609,35.6295522 C94.2624944,53.6721763 87.413072,76.0756275 69.3704478,85.6690609 C51.3278237,95.2624944 28.9243725,88.413072 19.3309391,70.3704478 Z" id="Combined-Shape" fill="#000000"></path>
                </g>
            </g>
        </g>
    </g>
</svg>