<?xml version="1.0" encoding="UTF-8"?>
<svg width="90px" height="87px" viewBox="0 0 90 87" version="1.1" xmlns="http://www.w3.org/2000/svg" xmlns:xlink="http://www.w3.org/1999/xlink">
    <!-- Generator: Sketch 52.5 (67469) - http://www.bohemiancoding.com/sketch -->
    <title>Group 9</title>
    <desc>Created with Sketch.</desc>
    <g id="Page-1" stroke="none" stroke-width="1" fill="none" fill-rule="evenodd">
        <g id="Main" transform="translate(-789.000000, -1536.000000)" fill-rule="nonzero">
            <g id="Group-11" transform="translate(689.000000, 1520.000000)">
                <g id="Group-9" transform="translate(100.000000, 16.000000)">
                    <path d="M17,31 L21,31 L21,75 L17,75 L17,31 Z M35,31 L39,31 L39,75 L35,75 L35,31 Z M54,31 L58,31 L58,75 L54,75 L54,31 Z M71,31 L75,31 L75,75 L71,75 L71,31 Z" id="Combined-Shape" fill="#F55F44"></path>
                    <path d="M80,74 L80,32.1938927 L66,32.1938927 L66,74 L80,74 Z M84,74.2675644 C84.5978014,74.6133738 85,75.2597176 85,76 C85,77.1045695 84.1045695,78 83,78 L7,78 C5.8954305,78 5,77.1045695 5,76 C5,74.8954305 5.8954305,74 7,74 L8,74 L8,32.1938927 L2,32.1938927 C0.8954305,32.1938927 -1.13686838e-13,31.2984622 -1.13686838e-13,30.1938927 C-1.13686838e-13,29.5206737 0.338697607,28.8926248 0.901215587,28.5227635 L43.7809988,0.328870799 C44.4467175,-0.108845993 45.3087384,-0.109685952 45.9753089,0.326732648 L89.0376707,28.5206254 C89.9617908,29.1256675 90.2204546,30.3652983 89.6154125,31.2894183 C89.245891,31.8538124 88.6167463,32.1938927 87.9421451,32.1938927 L84,32.1938927 L84,74.2675644 Z M62,74 L62,32.1938927 L48,32.1938927 L48,74 L62,74 Z M44,74 L44,32.1938927 L30,32.1938927 L30,74 L44,74 Z M26,74 L26,32.1938927 L12,32.1938927 L12,74 L26,74 Z M2,83 L88,83 C89.1045695,83 90,83.8954305 90,85 C90,86.1045695 89.1045695,87 88,87 L2,87 C0.8954305,87 1.3527075e-16,86.1045695 0,85 C-1.3527075e-16,83.8954305 0.8954305,83 2,83 Z M44.8946543,4 L9,28.1938927 L80.9421451,28.1938927 L44.8946543,4 Z" id="Combined-Shape" fill="#000000"></path>
                </g>
            </g>
        </g>
    </g>
</svg>