<?xml version="1.0" encoding="UTF-8"?>
<svg width="131px" height="31px" viewBox="0 0 131 31" version="1.1" xmlns="http://www.w3.org/2000/svg" xmlns:xlink="http://www.w3.org/1999/xlink">
    <!-- Generator: Sketch 52.5 (67469) - http://www.bohemiancoding.com/sketch -->
    <title>TeraLogoName (1)</title>
    <desc>Created with Sketch.</desc>
    <g id="Page-1" stroke="none" stroke-width="1" fill="none" fill-rule="evenodd">
        <g id="Main" transform="translate(-48.000000, -15.000000)" fill="#FFFFFF">
            <g id="TeraLogoName-(1)" transform="translate(48.000000, 14.000000)">
                <path d="M121.933224,25.577 L115.296224,9.886 C114.718654,10.827148 114.190603,11.7978018 113.714224,12.794 C112.496224,15.811 111.369224,18.863 110.174224,21.885 C109.452224,23.702 105.224224,24.64 103.923224,23.185 C103.50461,22.549609 103.402756,21.7565519 103.647224,21.036 C106.242558,14.7893333 108.914891,8.57366667 111.664224,2.389 C112.081795,1.73171922 112.768428,1.29250803 113.540224,1.189 C118.232224,0.701 118.114224,0.789 119.954224,5.294 C122.643224,11.876 125.532224,18.377 128.331224,24.914 C128.857224,26.142 129.422224,27.357 129.868224,28.614 C130.634224,30.763 129.839224,31.901 127.554224,31.914 C122.354224,31.941 117.162224,31.923 111.965224,31.923 C109.104224,31.923 106.242224,31.898 103.381224,31.932 C101.774224,31.951 100.181224,31.806 99.9882245,29.845 C99.8212245,28.16 102.111224,25.707 103.610224,25.702 C108.810224,25.682 114.002224,25.702 119.199224,25.691 C119.990224,25.703 120.780224,25.629 121.933224,25.577 Z" id="Path_3"></path>
                <path d="M85.8012944,19.968 C87.7252944,22.968 89.5382944,25.777 91.3442944,28.595 C92.5112944,30.416 92.0862944,31.295 89.9382944,31.484 C87.5382944,31.684 85.4752944,31.595 84.2822944,28.791 C83.1694362,26.5136094 81.8142711,24.3628464 80.2402944,22.376 C79.7236248,21.6893743 78.9628598,21.2275452 78.1152944,21.086 C71.7712944,20.486 71.7672944,20.52 71.7682944,26.864 L71.7682944,28.439 C71.7682944,31.439 71.5962944,31.539 68.6072944,31.529 C66.9742944,31.523 66.0582944,31.007 66.0572944,29.262 C66.0572944,25.426 65.9462944,21.588 66.0332944,17.762 C66.0892944,15.268 66.7062944,14.804 69.2102944,14.8 C73.1292944,14.8 77.0402944,14.809 80.9542944,14.8 C83.0102944,14.791 85.1262944,13.34 85.4542944,11.757 C85.8352944,9.883 84.6202944,7.925 82.2172944,7.307 C80.2452764,6.88611632 78.2337044,6.67858914 76.2172944,6.688 C73.4362944,6.588 70.6472944,6.608 67.8632944,6.68 C65.5712944,6.738 66.1032944,4.953 66.0932944,3.824 C66.0882944,2.78 65.6532944,1.117 67.7932944,1.136 C72.8362944,1.194 77.8932944,0.908 82.9202944,1.207 C88.6302944,1.541 92.7212944,7.859 91.2402944,12.898 C90.54985,15.9373243 88.5619669,18.5213165 85.8012944,19.968 Z" id="Path_4"></path>
                <g id="Group" transform="translate(34.000000, 1.000000)">
                    <path d="M11.93,24.709 C14.936,24.709 17.944,24.751 20.949,24.691 C22.526,24.661 23.526,24.954 23.531,26.878 C23.54,30.078 23.25,30.826 21.081,30.905 C18.081,31.012 15.069,30.937 12.063,30.937 C9.131,30.937 6.199,30.97 3.269,30.926 C0.915,30.892 0.251,29.926 0.169,27.26 C0.103,25.031 1.269,24.64 3.134,24.694 C6.066,24.771 8.999,24.709 11.93,24.709 Z" id="Path_6"></path>
                    <path d="M12.066,0.151 C15.076,0.151 18.092,0.246 21.097,0.116 C22.897,0.038 23.653,0.462 23.542,2.447 C23.342,6.026 23.995,5.636 20.216,5.647 C14.416,5.666 8.625,5.605 2.83,5.68 C0.884,5.705 0.164,4.969 0.161,3.025 C0.158,1.081 0.63,0.044 2.81,0.125 C5.895,0.233 8.98,0.151 12.066,0.151 Z" id="Path_7"></path>
                    <path d="M11.288,12.438 C14.069,12.438 16.851,12.509 19.632,12.413 C21.599,12.345 22.091,13.519 22.124,15.068 C22.157,16.681 21.745,18.16 19.732,18.176 C14.0206667,18.2206667 8.309,18.2206667 2.597,18.176 C0.254,18.16 0.167,16.507 0.177,14.708 C0.187,12.909 1.077,12.394 2.719,12.423 C5.575,12.482 8.432,12.438 11.288,12.438 Z" id="Path_8"></path>
                </g>
                <g id="Group-2" transform="translate(0.000000, 1.000000)">
                    <path d="M17.758,0.152 C19.715,0.152 21.677,0.22 23.627,0.136 C25.979,0.036 25.527,1.843 25.608,3.093 C25.693,4.323 25.708,5.763 23.703,5.672 C21.826,5.586 19.939,5.715 18.061,5.639 C16.312,5.567 15.701,6.248 15.725,8.034 C15.812,14.734 15.71,21.434 15.791,28.126 C15.815,30.126 15.204,31.041 13.091,30.968 C10.479,30.877 9.551,30.268 9.551,28.023 C9.523,19.67 9.544,11.314 9.538,2.964 C9.533,1.079 10.223,-0.01 12.342,0.13 C14.14,0.244 15.953,0.152 17.758,0.152 Z" id="Path_5"></path>
                    <path d="M3.577,5.653 C0.029,5.653 0.029,5.653 0.003,3.202 C-0.026,0.344 0.156,0.167 3.07,0.153 L4.197,0.153 C6.916,0.153 7.115,0.345 7.159,2.993 C7.209,5.473 6.963,5.654 3.577,5.653 Z" id="Path_9"></path>
                </g>
            </g>
        </g>
    </g>
</svg>