<?xml version="1.0" encoding="UTF-8"?>
<svg width="107px" height="88px" viewBox="0 0 107 88" version="1.1" xmlns="http://www.w3.org/2000/svg" xmlns:xlink="http://www.w3.org/1999/xlink">
    <!-- Generator: Sketch 52.5 (67469) - http://www.bohemiancoding.com/sketch -->
    <title>Group 10</title>
    <desc>Created with Sketch.</desc>
    <g id="Page-1" stroke="none" stroke-width="1" fill="none" fill-rule="evenodd">
        <g id="Main" transform="translate(-469.000000, -1531.000000)" fill-rule="nonzero">
            <g id="Group-12" transform="translate(369.000000, 1520.000000)">
                <g id="Group-10" transform="translate(99.000000, 10.000000)">
                    <path d="M23.0796898,23.0796898 C23.8607384,22.2986412 25.1270683,22.2986412 25.9081169,23.0796898 L38.636039,35.8076118 C39.4170876,36.5886604 39.4170876,37.8549904 38.636039,38.636039 C37.8549904,39.4170876 36.5886604,39.4170876 35.8076118,38.636039 L23.0796898,25.9081169 C22.2986412,25.1270683 22.2986412,23.8607384 23.0796898,23.0796898 Z M51.363961,51.363961 C52.1450096,50.5829124 53.4113396,50.5829124 54.1923882,51.363961 L66.9203102,64.0918831 C67.7013588,64.8729317 67.7013588,66.1392616 66.9203102,66.9203102 C66.1392616,67.7013588 64.8729317,67.7013588 64.0918831,66.9203102 L51.363961,54.1923882 C50.5829124,53.4113396 50.5829124,52.1450096 51.363961,51.363961 Z M66.9203102,23.0796898 C67.7013588,23.8607384 67.7013588,25.1270683 66.9203102,25.9081169 L54.1923882,38.636039 C53.4113396,39.4170876 52.1450096,39.4170876 51.363961,38.636039 C50.5829124,37.8549904 50.5829124,36.5886604 51.363961,35.8076118 L64.0918831,23.0796898 C64.8729317,22.2986412 66.1392616,22.2986412 66.9203102,23.0796898 Z M38.636039,51.363961 C39.4170876,52.1450096 39.4170876,53.4113396 38.636039,54.1923882 L25.9081169,66.9203102 C25.1270683,67.7013588 23.8607384,67.7013588 23.0796898,66.9203102 C22.2986412,66.1392616 22.2986412,64.8729317 23.0796898,64.0918831 L35.8076118,51.363961 C36.5886604,50.5829124 37.8549904,50.5829124 38.636039,51.363961 Z" id="Combined-Shape" fill="#F55F44"></path>
                    <path d="M44.5362676,85.054037 C44.6850957,85.0187029 44.8403637,85 45,85 L103,85 C104.104569,85 105,85.8954305 105,87 C105,88.1045695 104.104569,89 103,89 L45,89 C44.8409694,89 44.686274,88.9814388 44.5379621,88.9463645 C44.3756442,88.9849267 44.2058133,89.0036566 44.0312382,88.9999019 C37.9842926,88.8698437 32.0045792,87.4887642 26.4047965,84.8775426 C4.38103783,74.6076953 -5.14738995,48.4285551 5.12245737,26.4047965 C15.3923047,4.38103783 41.5714449,-5.14738995 63.5952035,5.12245737 C84.7598208,14.9916805 94.3849718,39.5531714 85.9894641,61 L106,61 C107.104569,61 108,61.8954305 108,63 C108,64.1045695 107.104569,65 106,65 L83,65 C81.8954305,65 81,64.1045695 81,63 C81,62.7808948 81.0352331,62.5700187 81.1003428,62.3727284 C81.1308501,62.2144925 81.1811137,62.0574146 81.2523115,61.9047305 C90.5885363,41.8831317 81.9263292,18.0839134 61.9047305,8.74768852 C41.8831317,-0.588536319 18.0839134,8.07367075 8.74768852,28.0952695 C-0.588536319,48.1168683 8.07367075,71.9160866 28.0952695,81.2523115 C33.1895512,83.627814 38.622657,84.8826486 44.1172506,85.0008267 C44.2613053,85.0039251 44.4014744,85.0221804 44.5362676,85.054037 Z M47,32.1528964 C52.5782404,33.0142398 56.9857602,37.4217596 57.8471036,43 L74,43 C75.1045695,43 76,43.8954305 76,45 C76,46.1045695 75.1045695,47 74,47 L57.8471036,47 C56.9857602,52.5782404 52.5782404,56.9857602 47,57.8471036 L47,74 C47,75.1045695 46.1045695,76 45,76 C43.8954305,76 43,75.1045695 43,74 L43,57.8471036 C37.4217596,56.9857602 33.0142398,52.5782404 32.1528964,47 L16,47 C14.8954305,47 14,46.1045695 14,45 C14,43.8954305 14.8954305,43 16,43 L32.1528964,43 C33.0142398,37.4217596 37.4217596,33.0142398 43,32.1528964 L43,16 C43,14.8954305 43.8954305,14 45,14 C46.1045695,14 47,14.8954305 47,16 L47,32.1528964 Z M45,54 C49.9705627,54 54,49.9705627 54,45 C54,40.0294373 49.9705627,36 45,36 C40.0294373,36 36,40.0294373 36,45 C36,49.9705627 40.0294373,54 45,54 Z" id="Combined-Shape" fill="#000000"></path>
                </g>
            </g>
        </g>
    </g>
</svg>